<?xml version="1.0" encoding="UTF-8"?>
<svg id="_レイヤー_1" data-name="レイヤー 1" xmlns="http://www.w3.org/2000/svg" viewBox="0 0 462.01 365.85">
  <path d="M182.92,362.71c24.04-25.78,46.95-52.44,68.73-79.96,21.77-27.52,41.03-53.65,57.75-78.39,16.72-24.74,29.27-45.81,37.63-63.24,6.97-14.28,12.36-26.74,16.2-37.37,3.83-10.62,5.75-19.6,5.75-26.92,0-12.19-5.58-20.46-16.72-24.83-11.16-4.35-28.75-6.53-52.79-6.53-11.85,0-27.79,2.01-47.82,6.01-20.04,4.01-42.51,9.67-67.42,16.99-24.92,7.32-50.7,15.94-77.35,25.87-26.65,9.93-52.52,21-77.61,33.19L0,35.54c24.04-5.23,49.3-9.93,75.78-14.11,26.48-4.18,53.13-7.92,79.96-11.24,26.83-3.31,52.7-5.83,77.61-7.58,24.91-1.74,47.82-2.61,68.73-2.61,54,0,94.16,6.71,120.47,20.12,26.3,13.42,39.46,32.49,39.46,57.23,0,27.53-14.99,60.98-44.95,100.35-25.79,33.8-57.93,66.38-96.43,97.73-38.5,31.36-83.19,61.5-134.06,90.42l-3.66-3.14Z"/>
</svg>